<mxfile host="app.diagrams.net" agent="Mozilla/5.0 (X11; Linux x86_64) AppleWebKit/537.36 (KHTML, like Gecko) Chrome/131.0.0.0 Safari/537.36" version="24.9.0">
  <diagram name="Seite-1" id="swlAQlD2K9Mh6GkvpRFg">
    <mxGraphModel dx="1402" dy="714" grid="1" gridSize="10" guides="1" tooltips="1" connect="1" arrows="1" fold="1" page="1" pageScale="1" pageWidth="827" pageHeight="1169" math="0" shadow="0">
      <root>
        <mxCell id="0" />
        <mxCell id="1" parent="0" />
        <mxCell id="0QQ1PjAIQ96Lujf6Z7uI-1" value="SERVER" style="rounded=1;whiteSpace=wrap;html=1;" vertex="1" parent="1">
          <mxGeometry x="354" y="290" width="120" height="60" as="geometry" />
        </mxCell>
        <mxCell id="0QQ1PjAIQ96Lujf6Z7uI-2" value="CLIENT 1" style="rounded=1;whiteSpace=wrap;html=1;" vertex="1" parent="1">
          <mxGeometry x="150" y="450" width="120" height="60" as="geometry" />
        </mxCell>
        <mxCell id="0QQ1PjAIQ96Lujf6Z7uI-3" value="CLIENT 2" style="rounded=1;whiteSpace=wrap;html=1;" vertex="1" parent="1">
          <mxGeometry x="550" y="460" width="120" height="60" as="geometry" />
        </mxCell>
        <mxCell id="0QQ1PjAIQ96Lujf6Z7uI-5" value="" style="endArrow=classic;startArrow=classic;html=1;rounded=0;shape=link;linecap=square;enumerate=0;orthogonal=0;orthogonalLoop=0;width=-10;entryX=0;entryY=1;entryDx=0;entryDy=0;exitX=1;exitY=0;exitDx=0;exitDy=0;" edge="1" parent="1" source="0QQ1PjAIQ96Lujf6Z7uI-2" target="0QQ1PjAIQ96Lujf6Z7uI-1">
          <mxGeometry width="50" height="50" relative="1" as="geometry">
            <mxPoint x="240" y="440" as="sourcePoint" />
            <mxPoint x="350" y="350" as="targetPoint" />
          </mxGeometry>
        </mxCell>
        <mxCell id="0QQ1PjAIQ96Lujf6Z7uI-6" value="1. request user list&lt;div&gt;&lt;div&gt;2. get PUB key from reciever&lt;/div&gt;&lt;/div&gt;&lt;div&gt;3. send encrypted message&lt;/div&gt;" style="edgeLabel;html=1;align=left;verticalAlign=middle;resizable=0;points=[];fontSize=13;" vertex="1" connectable="0" parent="0QQ1PjAIQ96Lujf6Z7uI-5">
          <mxGeometry relative="1" as="geometry">
            <mxPoint x="-102" as="offset" />
          </mxGeometry>
        </mxCell>
        <mxCell id="0QQ1PjAIQ96Lujf6Z7uI-8" value="" style="endArrow=classic;startArrow=classic;html=1;rounded=0;entryX=1;entryY=1;entryDx=0;entryDy=0;exitX=0;exitY=0;exitDx=0;exitDy=0;shape=link;width=9;" edge="1" parent="1" source="0QQ1PjAIQ96Lujf6Z7uI-3" target="0QQ1PjAIQ96Lujf6Z7uI-1">
          <mxGeometry width="50" height="50" relative="1" as="geometry">
            <mxPoint x="480" y="430" as="sourcePoint" />
            <mxPoint x="530" y="380" as="targetPoint" />
          </mxGeometry>
        </mxCell>
        <mxCell id="0QQ1PjAIQ96Lujf6Z7uI-9" value="1. request own mailbox&lt;div&gt;2. decrypt maibox contents&lt;/div&gt;" style="edgeLabel;html=1;align=left;verticalAlign=middle;resizable=0;points=[];fontSize=13;" vertex="1" connectable="0" parent="0QQ1PjAIQ96Lujf6Z7uI-8">
          <mxGeometry x="0.0322" y="-4" relative="1" as="geometry">
            <mxPoint x="-34" as="offset" />
          </mxGeometry>
        </mxCell>
        <mxCell id="0QQ1PjAIQ96Lujf6Z7uI-10" value="User list" style="swimlane;fontStyle=0;childLayout=stackLayout;horizontal=1;startSize=30;horizontalStack=0;resizeParent=1;resizeParentMax=0;resizeLast=0;collapsible=1;marginBottom=0;whiteSpace=wrap;html=1;" vertex="1" parent="1">
          <mxGeometry x="120" y="100" width="230" height="120" as="geometry" />
        </mxCell>
        <mxCell id="0QQ1PjAIQ96Lujf6Z7uI-11" value="Username | PUB key | connection status" style="text;strokeColor=none;fillColor=none;align=left;verticalAlign=middle;spacingLeft=4;spacingRight=4;overflow=hidden;points=[[0,0.5],[1,0.5]];portConstraint=eastwest;rotatable=0;whiteSpace=wrap;html=1;" vertex="1" parent="0QQ1PjAIQ96Lujf6Z7uI-10">
          <mxGeometry y="30" width="230" height="30" as="geometry" />
        </mxCell>
        <mxCell id="0QQ1PjAIQ96Lujf6Z7uI-12" value="Username | PUB key | connection status" style="text;strokeColor=none;fillColor=none;align=left;verticalAlign=middle;spacingLeft=4;spacingRight=4;overflow=hidden;points=[[0,0.5],[1,0.5]];portConstraint=eastwest;rotatable=0;whiteSpace=wrap;html=1;" vertex="1" parent="0QQ1PjAIQ96Lujf6Z7uI-10">
          <mxGeometry y="60" width="230" height="30" as="geometry" />
        </mxCell>
        <mxCell id="0QQ1PjAIQ96Lujf6Z7uI-13" value="Username | PUB key | connection status" style="text;strokeColor=none;fillColor=none;align=left;verticalAlign=middle;spacingLeft=4;spacingRight=4;overflow=hidden;points=[[0,0.5],[1,0.5]];portConstraint=eastwest;rotatable=0;whiteSpace=wrap;html=1;" vertex="1" parent="0QQ1PjAIQ96Lujf6Z7uI-10">
          <mxGeometry y="90" width="230" height="30" as="geometry" />
        </mxCell>
        <mxCell id="0QQ1PjAIQ96Lujf6Z7uI-15" value="Mailbox" style="swimlane;fontStyle=0;childLayout=stackLayout;horizontal=1;startSize=30;horizontalStack=0;resizeParent=1;resizeParentMax=0;resizeLast=0;collapsible=1;marginBottom=0;whiteSpace=wrap;html=1;strokeColor=default;align=center;verticalAlign=middle;fontFamily=Helvetica;fontSize=12;fontColor=default;fillColor=default;" vertex="1" parent="1">
          <mxGeometry x="480" y="90" width="200" height="120" as="geometry" />
        </mxCell>
        <mxCell id="0QQ1PjAIQ96Lujf6Z7uI-16" value="Time | sender | reciever | message" style="text;strokeColor=none;fillColor=none;align=left;verticalAlign=middle;spacingLeft=4;spacingRight=4;overflow=hidden;points=[[0,0.5],[1,0.5]];portConstraint=eastwest;rotatable=0;whiteSpace=wrap;html=1;fontFamily=Helvetica;fontSize=12;fontColor=default;" vertex="1" parent="0QQ1PjAIQ96Lujf6Z7uI-15">
          <mxGeometry y="30" width="200" height="30" as="geometry" />
        </mxCell>
        <mxCell id="0QQ1PjAIQ96Lujf6Z7uI-17" value="Time | sender | reciever | message" style="text;strokeColor=none;fillColor=none;align=left;verticalAlign=middle;spacingLeft=4;spacingRight=4;overflow=hidden;points=[[0,0.5],[1,0.5]];portConstraint=eastwest;rotatable=0;whiteSpace=wrap;html=1;fontFamily=Helvetica;fontSize=12;fontColor=default;" vertex="1" parent="0QQ1PjAIQ96Lujf6Z7uI-15">
          <mxGeometry y="60" width="200" height="30" as="geometry" />
        </mxCell>
        <mxCell id="0QQ1PjAIQ96Lujf6Z7uI-18" value="Time | sender | reciever | message" style="text;strokeColor=none;fillColor=none;align=left;verticalAlign=middle;spacingLeft=4;spacingRight=4;overflow=hidden;points=[[0,0.5],[1,0.5]];portConstraint=eastwest;rotatable=0;whiteSpace=wrap;html=1;fontFamily=Helvetica;fontSize=12;fontColor=default;" vertex="1" parent="0QQ1PjAIQ96Lujf6Z7uI-15">
          <mxGeometry y="90" width="200" height="30" as="geometry" />
        </mxCell>
        <mxCell id="0QQ1PjAIQ96Lujf6Z7uI-19" value="" style="endArrow=classic;html=1;rounded=0;fontFamily=Helvetica;fontSize=12;fontColor=default;exitX=0.996;exitY=1.033;exitDx=0;exitDy=0;exitPerimeter=0;entryX=0.2;entryY=0;entryDx=0;entryDy=0;entryPerimeter=0;" edge="1" parent="1" source="0QQ1PjAIQ96Lujf6Z7uI-13" target="0QQ1PjAIQ96Lujf6Z7uI-1">
          <mxGeometry width="50" height="50" relative="1" as="geometry">
            <mxPoint x="360" y="230" as="sourcePoint" />
            <mxPoint x="410" y="180" as="targetPoint" />
          </mxGeometry>
        </mxCell>
        <mxCell id="0QQ1PjAIQ96Lujf6Z7uI-20" value="" style="endArrow=classic;html=1;rounded=0;fontFamily=Helvetica;fontSize=12;fontColor=default;exitX=0.015;exitY=1.1;exitDx=0;exitDy=0;exitPerimeter=0;entryX=0.683;entryY=-0.017;entryDx=0;entryDy=0;entryPerimeter=0;" edge="1" parent="1" source="0QQ1PjAIQ96Lujf6Z7uI-18" target="0QQ1PjAIQ96Lujf6Z7uI-1">
          <mxGeometry width="50" height="50" relative="1" as="geometry">
            <mxPoint x="480" y="280" as="sourcePoint" />
            <mxPoint x="530" y="230" as="targetPoint" />
          </mxGeometry>
        </mxCell>
      </root>
    </mxGraphModel>
  </diagram>
</mxfile>
